<?xml version="1.0" encoding="UTF-8"?>
<svg width="587px" height="558px" viewBox="0 0 587 558" version="1.1" xmlns="http://www.w3.org/2000/svg" xmlns:xlink="http://www.w3.org/1999/xlink">
    <!-- Generator: Sketch 43.2 (39069) - http://www.bohemiancoding.com/sketch -->
    <title>Group 6</title>
    <desc>Created with Sketch.</desc>
    <defs>
        <linearGradient x1="50%" y1="0%" x2="50%" y2="100%" id="linearGradient-1">
            <stop stop-color="#FBDA61" offset="0%"></stop>
            <stop stop-color="#F76B1C" offset="100%"></stop>
        </linearGradient>
        <polygon id="path-2" points="159.561881 355.03653 293.647496 259.879997 427.73311 355.03653 427.73311 554.00228 345.656661 554.00228 241.087953 554.00228 159.561881 554.00228"></polygon>
    </defs>
    <g id="Page-1" stroke="none" stroke-width="1" fill="none" fill-rule="evenodd">
        <g id="Group-6">
            <path d="M158.573742,554 C64.3745443,505.219153 0,406.852935 0,293.451237 C0,131.507638 131.281226,0.226412188 293.224825,0.226412188 C455.168424,0.226412188 586.449649,131.507638 586.449649,293.451237 C586.449649,406.852935 522.075105,505.219153 427.875907,554 L158.573706,553.999981 Z" id="Combined-Shape-Copy" fill="url(#linearGradient-1)"></path>
            <g id="Rectangle-Copy">
                <use fill="#FFFFFF" fill-rule="evenodd" xlink:href="#path-2"></use>
                <path stroke="#1E283D" stroke-width="4" d="M161.561881,356.069643 L293.647496,262.33245 L425.73311,356.069643 L425.73311,552.00228 L345.656661,552.00228 L241.087953,552.00228 L161.561881,552.00228 L161.561881,356.069643 Z"></path>
            </g>
            <rect id="Rectangle-2-Copy" stroke="#1E283D" stroke-width="4" x="262.126092" y="447.368084" width="63.0428072" height="103.268492"></rect>
            <path d="M269.13,553 L318,553" id="Line-Copy-4" stroke="#FFFFFF" stroke-width="10" stroke-linecap="square"></path>
            <g id="Group-2" transform="translate(194.000000, 457.000000)" stroke="#1E283D" stroke-width="4">
                <path d="M17,4 L17,63.1377402" id="Line-Copy-5" stroke-linecap="square"></path>
                <path d="M28.58212,34 L4.44670943,34" id="Line-Copy-6" stroke-linecap="square"></path>
                <rect id="Rectangle-4-Copy-2" x="2.424141" y="2.11750143" width="28.1805475" height="64.3836634"></rect>
            </g>
            <g id="Group-2-Copy" transform="translate(194.000000, 369.000000)" stroke="#1E283D" stroke-width="4">
                <path d="M17,4 L17,63.1377402" id="Line-Copy-5" stroke-linecap="square"></path>
                <path d="M28.58212,34 L4.44670943,34" id="Line-Copy-6" stroke-linecap="square"></path>
                <rect id="Rectangle-4-Copy-2" x="2.424141" y="2.11750143" width="28.1805475" height="64.3836634"></rect>
            </g>
            <g id="Group-3" transform="translate(360.000000, 457.000000)" stroke="#1E283D" stroke-width="4">
                <path d="M28.848282,34 L4.71287139,34" id="Line-Copy-7" stroke-linecap="square"></path>
                <path d="M17,4 L17,63.4515576" id="Line-Copy-8" stroke-linecap="square"></path>
                <rect id="Rectangle-4-Copy-3" x="2.69030296" y="2.11750143" width="28.1805475" height="64.3836634"></rect>
            </g>
            <g id="Group-3-Copy" transform="translate(360.000000, 369.000000)" stroke="#1E283D" stroke-width="4">
                <path d="M28.848282,34 L4.71287139,34" id="Line-Copy-7" stroke-linecap="square"></path>
                <path d="M17,4 L17,63.4515576" id="Line-Copy-8" stroke-linecap="square"></path>
                <rect id="Rectangle-4-Copy-3" x="2.69030296" y="2.11750143" width="28.1805475" height="64.3836634"></rect>
            </g>
            <polygon id="Triangle" stroke="#1E283D" stroke-width="4" points="294 371 324 425 264 425"></polygon>
            <circle id="Oval-3" stroke="#1E283D" stroke-width="4" cx="294" cy="408" r="17"></circle>
            <path d="M294,423.5 L294,374.5" id="Line" stroke="#1E283D" stroke-width="4" stroke-linecap="square"></path>
        </g>
    </g>
</svg>