<?xml version="1.0" encoding="UTF-8"?>
<svg width="438px" height="414px" viewBox="0 0 438 414" version="1.1" xmlns="http://www.w3.org/2000/svg" xmlns:xlink="http://www.w3.org/1999/xlink">
    <!-- Generator: Sketch 43.2 (39069) - http://www.bohemiancoding.com/sketch -->
    <title>Group 4</title>
    <desc>Created with Sketch.</desc>
    <defs>
        <linearGradient x1="50%" y1="0%" x2="50%" y2="100%" id="linearGradient-1">
            <stop stop-color="#FBDA61" offset="0%"></stop>
            <stop stop-color="#F76B1C" offset="100%"></stop>
        </linearGradient>
        <polygon id="path-2" points="119 264.616998 219 193.650002 319 264.616998 319 413.004094 257.788027 413.004094 179.801505 413.004094 119 413.004094"></polygon>
    </defs>
    <g id="Page-1" stroke="none" stroke-width="1" fill="none" fill-rule="evenodd">
        <g id="Group-4">
            <path d="M118.263054,413 C48.0100304,376.619627 0,303.258873 0,218.684775 C0,97.9085089 97.9085089,0 218.684775,0 C339.461042,0 437.36955,97.9085089 437.36955,218.684775 C437.36955,303.258873 389.35952,376.619627 319.106497,413 L118.263027,412.999986 Z" id="Combined-Shape" fill="url(#linearGradient-1)"></path>
            <g id="Rectangle">
                <use fill="#FFFFFF" fill-rule="evenodd" xlink:href="#path-2"></use>
                <path stroke="#1E283D" stroke-width="4" d="M121,265.650111 L219,196.102455 L317,265.650111 L317,411.004094 L257.788027,411.004094 L179.801505,411.004094 L121,411.004094 L121,265.650111 Z"></path>
            </g>
            <rect id="Rectangle-2" stroke="#1E283D" stroke-width="4" x="196" y="331" width="46" height="76"></rect>
            <path d="M203,409 L235,409" id="Line" stroke="#FFFFFF" stroke-width="10" stroke-linecap="square"></path>
            <path d="M157,345 L157,387" id="Line" stroke="#1E283D" stroke-width="4" stroke-linecap="square"></path>
            <path d="M166,365 L148,365" id="Line" stroke="#1E283D" stroke-width="4" stroke-linecap="square"></path>
            <path d="M290,366 L272,366" id="Line-Copy-3" stroke="#1E283D" stroke-width="4" stroke-linecap="square"></path>
            <path d="M281,346 L281,387.234043" id="Line-Copy-2" stroke="#1E283D" stroke-width="4" stroke-linecap="square"></path>
            <g id="Group" transform="translate(198.000000, 269.000000)" stroke="#1E283D" stroke-width="4">
                <circle id="Oval-2" cx="20.5" cy="20.5" r="20.5"></circle>
                <path d="M20.5,2.73333333 L20.5,39.6333333" id="Line" stroke-linecap="square"></path>
                <path d="M38.2666667,20.5 L21.8666667,20.5" id="Line" stroke-linecap="square"></path>
                <path d="M19.1333333,20.5 L1.36666667,20.5" id="Line-Copy" stroke-linecap="square" transform="translate(10.250000, 20.500000) scale(-1, 1) translate(-10.250000, -20.500000) "></path>
            </g>
            <rect id="Rectangle-4" stroke="#1E283D" stroke-width="4" x="147" y="342" width="20" height="47"></rect>
            <rect id="Rectangle-4-Copy" stroke="#1E283D" stroke-width="4" x="271" y="342" width="20" height="47"></rect>
        </g>
    </g>
</svg>